<svg t="1722572893518" class="icon" viewBox="0 0 1106 1024" version="1.1" xmlns="http://www.w3.org/2000/svg" p-id="6689" width="200" height="200"><path d="M564.845345 512.001621m-98.72707 502.287947a511.898639 511.898639 0 1 0 197.45414-1004.575894 511.898639 511.898639 0 1 0-197.45414 1004.575894Z" fill="#FFD21F" p-id="6690"></path><path d="M353.503965 346.976729a87.4511 87.4511 0 1 1-87.398609-87.451101 87.398609 87.398609 0 0 1 87.398609 87.451101z" fill="#231F20" p-id="6691"></path><path d="M281.74787 333.171423a38.686351 38.686351 0 1 1-38.686351-38.686351 38.686351 38.686351 0 0 1 38.686351 38.686351z" fill="#FFFFFF" p-id="6692"></path><path d="M951.068988 346.976729a87.4511 87.4511 0 1 1-87.451101-87.451101 87.4511 87.4511 0 0 1 87.451101 87.451101z" fill="#231F20" p-id="6693"></path><path d="M879.260401 333.171423a38.686351 38.686351 0 1 1-38.633859-38.686351 38.686351 38.686351 0 0 1 38.633859 38.686351z" fill="#FFFFFF" p-id="6694"></path><path d="M835.324884 595.472233a19.00198 19.00198 0 0 0-22.308954 14.960122A260.621077 260.621077 0 0 1 768.503005 703.447571c-46.350133 62.360088-70.443804 100.364048-203.667629 107.292947-109.077663-1.522258-157.474971-44.932858-203.667629-107.292947a261.093502 261.093502 0 0 1-44.460433-92.962724 19.054471 19.054471 0 0 0-37.37406 7.29634A292.745971 292.745971 0 0 0 329.56777 724.444234c36.74416 49.657107 123.827819 122.830477 235.267606 122.830477 127.817185 0 198.838397-73.17337 235.320098-122.830477a293.113412 293.113412 0 0 0 50.234516-106.715539 19.00198 19.00198 0 0 0-15.065106-22.256462z" fill="#231F20" p-id="6695"></path><path d="M863.617887 90.08256a243.351322 243.351322 0 0 0-242.773913 231.960632H485.835432a243.036372 243.036372 0 1 0-2.887041 49.762091h140.677641a243.036372 243.036372 0 1 0 239.939364-281.722723zM243.061519 530.225103a197.316138 197.316138 0 1 1 197.316138-197.05368A197.473613 197.473613 0 0 1 243.061519 530.225103z m620.556368 0a197.316138 197.316138 0 1 1 197.316139-197.263647A197.526105 197.526105 0 0 1 863.617887 530.225103z" fill="#231F20" p-id="6696"></path></svg>