<svg t="1722580723383" class="icon" viewBox="0 0 1024 1024" version="1.1" xmlns="http://www.w3.org/2000/svg" p-id="18429" width="200" height="200"><path d="M512 0q512 0 512 512t-512 512Q0 1024 0 512T512 0z" fill="#F08198" p-id="18430"></path><path d="M309.29 595.2c-13.14-9.941-27.946-16.896-43.178-23.04-31.104-12.245-63.659-16.64-96.853-15.787-7.851 0-15.659 0.598-23.723 1.024 0-0.64-0.64-1.45-0.64-2.56-2.133-23.637-4.65-47.274-6.357-70.485a1087.147 1087.147 0 0 1-2.56-58.283c-0.598-37.376-0.598-74.538-0.598-111.872 0-8.874-0.64-7.808-7.381-4.864a4230.314 4230.314 0 0 1-62.635 24.704c-0.64 0.64-1.706 2.731-1.28 3.798 6.358 23.637 11.008 47.914 14.208 71.978 3.158 20.907 5.888 41.174 8.875 61.654 2.56 17.92 4.224 35.882 6.315 54.058 2.133 18.347 4.693 36.694 6.826 55.339l6.315 52.565c1.45 12.672 2.73 25.088 3.84 37.76 0.597 9.942 1.45 19.84 1.664 29.355 0 2.133 0.64 3.2 2.73 3.2 4.694 0 8.875 0.597 13.355 0 21.547-2.133 43.094-3.627 64.299-6.784 16.256-2.56 32.128-6.315 47.787-11.605 22.229-7.382 41.258-20.054 59.69-34.646 7.808-5.888 14.166-13.056 16.896-22.186 5.931-14.934 3.414-25.088-7.594-33.323z m133.633 16.085c-1.067-12.202-2.176-25.002-3.712-37.162-1.536-16.811-3.328-33.622-4.864-50.603-1.536-15.53-2.176-30.89-3.286-46.421-1.536-21.419-3.285-42.838-4.864-64.256l-3.285-47.446c-0.427-5.888-2.859-7.338-9.216-6.912a835.808 835.808 0 0 1-22.912 1.451c-6.613 0.64-13.227 1.493-19.584 2.133 19.797 100.352 28.587 200.918 38.955 300.672 12.117 1.024 23.082 1.664 34.56 2.731 2.176 0.427 3.285 0 3.285-2.133l-1.11-11.52c-0.853-13.867-2.431-27.307-3.967-40.534z m-64.811 10.283c-1.365-12.501-2.56-24.747-3.883-37.248-1.365-14.165-2.56-28.544-4.309-42.667-0.981-8.746-2.347-17.066-3.541-25.429-0.384-3.115-2.347-4.565-5.462-4.139-5.504 0.598-11.349 0.598-17.066 1.451-7.808 1.024-15.659 2.475-23.851 3.541 9.685 53.803 19.627 107.606 29.739 161.323 11.733-1.707 22.912-3.115 34.261-4.565-0.427-4.182-0.981-8.32-1.365-12.075-1.579-13.739-3.158-27.093-4.523-40.192z m120.661 51.797c-0.426-20.821-1.024-41.045-1.408-61.909-0.426-25.728 0-51.84 0-77.525 0-5.718-0.426-10.966-0.64-16.64 0-2.56-1.45-4.651-4.138-4.651a828.533 828.533 0 0 0-32.555-0.64c-4.139 0-7.893 0.64-12.032 1.493 0.427 1.451 0.427 2.518 0.427 3.584 1.45 17.664 3.114 35.158 4.565 52.438 1.45 16.853 3.072 34.133 4.523 50.986 1.706 18.347 3.114 36.651 4.778 54.998 0 1.024 1.707 2.73 2.688 2.73 11.008 0.427 22.614 0 34.219 0-0.427-2.346-0.427-3.84-0.427-4.864zM358.4 484.693c-1.792-20.053-3.243-39.04-4.821-58.496-0.384-2.56-1.28-3.797-3.072-3.797-5.718 0-11.606 0-17.707 0.427 2.304 21.546 4.48 42.24 6.827 63.573 6.613-0.64 12.501-0.853 18.773-1.707zM512 494.891v-54.742c0-3.84-1.621-4.949-5.163-4.949H486.4v62.933c8.96 0.427 17.365 0.64 25.6 1.067v-4.31z m-179.2 1.365v-4.181c-0.939-10.923-2.304-21.376-3.243-32.299-0.597-6.912-1.322-13.653-1.92-20.736-0.384-1.707 0.427-4.224-2.304-3.797-6.101 0.64-12.032 2.133-18.133 2.73 3.413 20.779 6.699 40.875 10.112 61.227l15.488-2.944z m140.8 1.45v-32.554c0-8.533-0.47-17.536 0-26.112 0-3.2-1.195-3.84-4.267-3.84H448c1.92 22.272 3.584 43.221 5.504 64 6.443-0.427 12.928-0.853 20.096-1.493z m283.733 97.665c-13.098-9.942-27.904-16.896-43.136-23.04-31.104-12.246-63.658-16.683-96.853-15.83-7.808 0-15.659 0.598-23.68 1.024 0-0.64-0.64-1.45-0.64-2.56-2.133-23.637-4.693-47.274-6.357-70.528a1077.76 1077.76 0 0 1-2.56-58.282c-0.598-37.419-0.598-74.582-0.598-111.958 0-8.874-0.64-7.808-7.424-4.864-20.906 8.448-41.642 16.683-62.592 24.704-0.64 0.427-1.706 2.56-1.45 3.584a566.879 566.879 0 0 1 14.165 72.022c3.157 20.906 5.93 41.216 8.875 61.696 2.56 17.962 4.266 35.925 6.357 54.101 2.133 18.347 4.65 36.736 6.741 55.339 2.134 17.749 4.267 34.858 6.358 52.608 1.493 12.672 2.73 25.13 3.797 37.802 0.64 9.942 1.493 19.84 1.707 29.355 0 2.133 0.64 3.2 2.73 3.2 4.694 0 8.875 0.597 13.312 0 21.59-2.133 43.179-3.627 64.299-6.784 16.213-2.475 32.213-6.4 47.787-11.605 22.186-7.424 41.258-20.054 59.648-34.646 7.808-5.93 14.165-13.098 16.896-22.186 6.144-14.806 3.626-24.918-7.382-33.152z m133.59 15.914c-1.067-12.202-2.176-25.002-3.712-37.162-1.536-16.811-3.328-33.622-4.864-50.603-1.536-15.53-2.176-30.89-3.286-46.421-1.536-21.419-3.285-42.838-4.864-64.256l-3.285-47.446c-0.427-5.888-2.859-7.338-9.216-6.912-7.723 0.598-15.19 1.024-22.912 1.451-6.613 0.64-13.227 1.493-19.584 2.133 19.797 100.352 28.587 200.918 38.955 300.672 12.117 1.024 23.082 1.664 34.56 2.731 2.176 0.427 3.285 0 3.285-2.133l-1.11-11.52c-0.853-13.867-2.431-27.307-3.967-40.534z m-64.811 10.283c-1.365-12.501-2.56-24.747-3.883-37.248-1.365-14.165-2.56-28.544-4.309-42.667-0.981-8.746-2.347-17.066-3.541-25.429-0.384-3.115-2.347-4.565-5.462-4.139-5.504 0.598-11.349 0.598-17.066 1.451-7.808 1.024-15.659 2.475-23.851 3.541 9.685 53.803 19.627 107.606 29.739 161.323 11.434-1.621 22.826-3.115 34.261-4.565-0.427-4.182-0.981-8.32-1.365-12.075-1.579-13.739-3.158-27.093-4.523-40.192z m133.461 51.797c-0.426-20.821-1.024-41.045-1.408-61.909-0.426-25.728 0-51.84 0-77.525 0-5.718-0.426-10.966-0.64-16.64 0-2.56-1.45-4.651-4.138-4.651a828.533 828.533 0 0 0-32.555-0.64c-4.139 0-7.893 0.64-12.032 1.493 0.427 1.451 0.427 2.518 0.427 3.584 1.45 17.664 3.114 35.158 4.565 52.438 1.45 16.853 3.072 34.133 4.523 50.986 1.706 18.347 3.114 36.651 4.778 54.998 0 1.024 1.707 2.73 2.688 2.73 11.008 0.427 22.614 0 34.219 0-0.427-2.346-0.427-3.84-0.427-4.864zM806.4 484.693c-1.792-20.053-3.243-39.04-4.821-58.496-0.384-2.56-1.28-3.797-3.072-3.797-5.718 0-11.606 0-17.707 0.427 2.304 21.546 4.48 42.24 6.827 63.573 6.613-0.64 12.501-0.853 18.773-1.707zM960 494.891v-54.742c0-3.84-1.621-4.949-5.163-4.949H934.4v62.933c8.96 0.427 17.365 0.64 25.6 1.067v-4.31z m-179.2 1.365v-4.181c-0.939-10.923-2.304-21.376-3.243-32.299-0.597-6.912-1.322-13.653-1.92-20.736-0.384-1.707 0.427-4.224-2.304-3.797-6.101 0.64-12.032 2.133-18.133 2.73 3.413 20.779 6.699 40.875 10.112 61.227l15.488-2.944z m153.6 1.45v-32.554c0-8.533-0.47-17.536 0-26.112 0-3.2-1.195-3.84-4.267-3.84H908.8c1.92 22.272 3.584 43.221 5.504 64 6.443-0.427 12.928-0.853 20.096-1.493z" fill="#FFFFFF" p-id="18431"></path><path d="M193.493 668.16c-3.072-21.76-6.101-43.008-9.173-64 11.819 2.56 61.568 21.419 64 24.32-18.133 13.013-36.096 26.24-54.827 39.68z m440.32 0a10997.17 10997.17 0 0 0-9.173-64c11.819 2.56 61.568 21.419 64 24.32-18.133 13.013-36.096 26.24-54.827 39.68z" fill="#F08198" p-id="18432"></path></svg>